HIERARCHY
ROOT Hips
{
	OFFSET 0.000000 0.000000 0.000000
	CHANNELS 6 Xposition Yposition Zposition Xrotation Yrotation Zrotation
	JOINT LeftUpLeg_virtual
	{
		OFFSET 0.000000 0.000000 0.000000
		CHANNELS 3 Xrotation Yrotation Zrotation
		JOINT LeftUpLeg
		{
			OFFSET 10.205400 -3.823500 0.155100
			CHANNELS 3 Xrotation Yrotation Zrotation
			JOINT LeftLeg
			{
				OFFSET 0.708757 -12.982077 0.567790
				CHANNELS 3 Xrotation Yrotation Zrotation
				JOINT LeftFoot
				{
					OFFSET -0.708756 -10.717838 -2.184338
					CHANNELS 3 Xrotation Yrotation Zrotation
					JOINT LeftToeBase
					{
						OFFSET 0.108149 -7.191104 7.560241
						CHANNELS 3 Xrotation Yrotation Zrotation
						JOINT LeftToe_End
						{
							OFFSET 0.070230 0.081724 4.490308
							CHANNELS 3 Xrotation Yrotation Zrotation
							End Site
							{
								OFFSET 0 0 0
							}
						}
					}
				}
			}
		}
	}
	JOINT RightUpLeg_virtual
	{
		OFFSET 0.000000 0.000000 0.000000
		CHANNELS 3 Xrotation Yrotation Zrotation
		JOINT RightUpLeg
		{
			OFFSET -10.205400 -3.823500 0.005500
			CHANNELS 3 Xrotation Yrotation Zrotation
			JOINT RightLeg
			{
				OFFSET -0.708756 -12.982134 0.610632
				CHANNELS 3 Xrotation Yrotation Zrotation
				JOINT RightFoot
				{
					OFFSET 0.708754 -10.717769 -1.945823
					CHANNELS 3 Xrotation Yrotation Zrotation
					JOINT RightToeBase
					{
						OFFSET -0.108140 -7.191069 7.372968
						CHANNELS 3 Xrotation Yrotation Zrotation
						JOINT RightToe_End
						{
							OFFSET -0.070227 0.081735 4.479403
							CHANNELS 3 Xrotation Yrotation Zrotation
							End Site
							{
								OFFSET 0 0 0
							}
						}
					}
				}
			}
		}
	}
	JOINT Spine_virtual
	{
		OFFSET 0.000000 0.000000 0.000000
		CHANNELS 3 Xrotation Yrotation Zrotation
		JOINT Spine
		{
			OFFSET 0.000000 6.876099 0.125700
			CHANNELS 3 Xrotation Yrotation Zrotation
			JOINT Spine1
			{
				OFFSET 0.000000 5.730043 0.104720
				CHANNELS 3 Xrotation Yrotation Zrotation
				JOINT Spine1_split
				{
					OFFSET 0.000000 5.730043 0.104720
					CHANNELS 3 Xrotation Yrotation Zrotation
					JOINT Spine2
					{
						OFFSET 0.000000 5.730043 0.104720
						CHANNELS 3 Xrotation Yrotation Zrotation
						JOINT Neck_virtual
						{
							OFFSET 0.000000 0.000000 0.000000
							CHANNELS 3 Xrotation Yrotation Zrotation
							JOINT Neck
							{
								OFFSET 0.000000 10.314075 0.188496
								CHANNELS 3 Xrotation Yrotation Zrotation
								JOINT Head
								{
									OFFSET 0.000000 7.643700 -2.377400
									CHANNELS 3 Xrotation Yrotation Zrotation
									JOINT HeadTop_End
									{
										OFFSET 0.000000 43.788605 -13.619600
										CHANNELS 3 Xrotation Yrotation Zrotation
										End Site
										{
											OFFSET 0 0 0
										}
									}
								}
							}
						}
						JOINT LeftShoulder_virtual
						{
							OFFSET 0.000000 0.000000 0.000000
							CHANNELS 3 Xrotation Yrotation Zrotation
							JOINT LeftShoulder
							{
								OFFSET 2.196100 4.412489 0.087492
								CHANNELS 3 Xrotation Yrotation Zrotation
								JOINT LeftShoulder_split
								{
									OFFSET 2.196100 4.412489 0.087492
									CHANNELS 3 Xrotation Yrotation Zrotation
									JOINT LeftArm
									{
										OFFSET 8.771219 -2.981674 -0.026999
										CHANNELS 3 Xrotation Yrotation Zrotation
										JOINT LeftForeArm
										{
											OFFSET 8.512804 0.000000 -0.000000
											CHANNELS 3 Xrotation Yrotation Zrotation
											JOINT LeftHand
											{
												OFFSET 18.484802 0.000000 -0.000000
												CHANNELS 3 Xrotation Yrotation Zrotation
												End Site
												{
													OFFSET 0 0 0
												}
											}
										}
									}
								}
							}
						}
						JOINT RightShoulder_virtual
						{
							OFFSET 0.000000 0.000000 0.000000
							CHANNELS 3 Xrotation Yrotation Zrotation
							JOINT RightShoulder
							{
								OFFSET -2.196100 4.412496 0.070690
								CHANNELS 3 Xrotation Yrotation Zrotation
								JOINT RightShoulder_split
								{
									OFFSET -2.196100 4.412496 0.070690
									CHANNELS 3 Xrotation Yrotation Zrotation
									JOINT RightArm
									{
										OFFSET -8.771282 -2.981682 -0.094208
										CHANNELS 3 Xrotation Yrotation Zrotation
										JOINT RightForeArm
										{
											OFFSET -8.494598 0.000000 0.000000
											CHANNELS 3 Xrotation Yrotation Zrotation
											JOINT RightHand
											{
												OFFSET -18.483803 0.000000 0.000001
												CHANNELS 3 Xrotation Yrotation Zrotation
												End Site
												{
													OFFSET 0 0 0
												}
											}
										}
									}
								}
							}
						}
					}
				}
			}
		}
	}
}
MOTION
Frames: 9
Frame Time: 0.03333333
-3.017752 31.379477 17.197653 0.000000 0.000000 0.000000 29.409562 5.284734 -18.848935 -81.940769 -3.909688 11.616215 28.085852 10.752885 -4.743058 22.351632 -0.034395 12.025778 -0.206838 -0.000010 0.000002 0.000000 0.000000 0.000000 29.409562 5.284734 -18.848935 14.474518 -24.827128 -17.005405 70.459986 4.179771 -0.911713 15.578601 0.681961 9.649503 0.000012 0.000005 0.000001 0.000000 0.000000 0.000000 29.409562 5.284734 -18.848935 5.937112 13.021599 -7.295357 11.648229 11.205361 -7.545694 0.000000 0.000000 0.000000 0.000000 0.000000 0.000000 11.698388 11.155145 -7.567846 -9.883400 -7.149092 7.463519 -30.256328 -33.917668 18.385676 0.000000 0.000000 0.000000 11.698388 11.155145 -7.567846 -0.266297 3.848957 2.890109 0.000000 0.000000 0.000000 28.180083 -44.869838 -18.300128 0.000007 -24.379737 -0.000010 0.000000 0.000000 0.000000 11.698388 11.155145 -7.567846 4.952155 16.802284 -7.381355 0.000000 0.000000 0.000000 -6.598528 60.118219 21.651619 0.000011 37.609132 -0.000016 0.000000 0.000000 0.000000 
-3.291372 31.223015 17.753620 0.000000 0.000000 0.000000 27.807090 6.663886 -18.632978 -81.839053 -3.260878 12.371925 33.054410 8.568182 -5.408698 19.150585 -0.111087 11.255200 -0.218918 0.000001 -0.000005 0.000000 0.000000 0.000000 27.807090 6.663886 -18.632978 9.557491 -24.358709 -16.305159 68.411673 4.387352 -1.629361 16.589887 0.600414 7.219410 0.000012 0.000006 -0.000016 0.000000 0.000000 0.000000 27.807090 6.663886 -18.632978 5.977067 11.257186 -7.901878 11.743715 10.656887 -7.606247 0.000000 0.000000 0.000000 0.000000 0.000000 0.000000 11.859999 10.534739 -7.618954 -10.124074 -6.973861 7.156030 -30.258769 -33.172477 18.493000 0.000000 0.000000 0.000000 11.859999 10.534739 -7.618954 -0.246498 3.605300 3.561400 0.000000 0.000000 0.000000 28.114739 -48.438882 -10.572334 0.000012 -21.961905 0.000004 0.000000 0.000000 0.000000 11.859999 10.534739 -7.618954 4.570570 15.669540 -6.602611 0.000000 0.000000 0.000000 -6.422806 55.485868 16.577477 -0.000005 34.357593 0.000017 0.000000 0.000000 0.000000 
-3.515062 31.150579 18.362991 0.000000 0.000000 0.000000 26.130536 7.980055 -18.410778 -81.163677 -2.332318 13.109120 37.188331 6.166711 -5.508255 16.092353 -0.138814 10.440768 -0.229838 -0.000001 0.000002 0.000000 0.000000 0.000000 26.130536 7.980055 -18.410778 4.792639 -23.682814 -15.721919 65.924508 4.302868 -2.686248 17.338080 0.600293 6.145348 0.000016 -0.000012 0.000005 0.000000 0.000000 0.000000 26.130536 7.980055 -18.410778 6.102560 9.380981 -8.557331 12.021805 9.741552 -7.730868 0.000000 0.000000 0.000000 0.000000 0.000000 0.000000 12.202118 9.561379 -7.685893 -10.392264 -6.743328 6.915846 -30.125284 -32.065143 18.818932 0.000000 0.000000 0.000000 12.202118 9.561379 -7.685893 -0.221339 3.342414 4.318540 0.000000 0.000000 0.000000 24.076410 -51.955975 -5.803393 0.000009 -19.112211 0.000001 0.000000 0.000000 0.000000 12.202118 9.561379 -7.685893 4.269310 14.317949 -6.742132 0.000000 0.000000 0.000000 -7.185972 51.966682 12.264365 0.000018 31.452813 -0.000004 0.000000 0.000000 0.000000 
-3.567362 31.125990 19.155499 0.000000 0.000000 0.000000 24.248739 9.170758 -18.092854 -79.906055 -1.589671 13.770076 42.077572 4.129390 -5.384320 11.861094 -0.171323 9.608631 -0.235207 0.000001 0.000000 0.000000 0.000000 0.000000 24.248739 9.170758 -18.092854 -0.187835 -22.965886 -15.539650 63.102478 4.417919 -3.707545 17.555413 0.438065 3.619656 0.000013 0.000002 0.000004 0.000000 0.000000 0.000000 24.248739 9.170758 -18.092854 6.295205 7.398468 -9.136591 12.485683 8.293026 -7.856396 0.000000 0.000000 0.000000 0.000000 0.000000 0.000000 12.725214 8.079465 -7.691573 -10.634242 -6.399408 6.712315 -29.551510 -30.333526 19.557410 0.000000 0.000000 0.000000 12.725214 8.079465 -7.691573 -0.170769 3.027217 5.120387 0.000000 0.000000 0.000000 16.174731 -54.878367 -4.109480 -0.000001 -16.222534 0.000004 0.000000 0.000000 0.000000 12.725214 8.079465 -7.691573 4.077275 13.192562 -7.620798 0.000000 0.000000 0.000000 -8.728083 49.548071 8.555936 -0.000006 29.088362 -0.000003 0.000000 0.000000 0.000000 
-3.431862 31.220331 20.029938 0.000000 0.000000 0.000000 22.081592 10.039188 -17.811597 -77.526991 -1.334656 14.432256 46.839706 3.000579 -5.179659 6.909069 -0.192034 8.788625 -0.229654 0.000010 0.000001 0.000000 0.000000 0.000000 22.081592 10.039188 -17.811597 -5.488527 -22.900868 -15.696868 59.614806 5.328200 -4.604051 17.412239 0.145870 -0.541049 0.000008 0.000004 -0.000002 0.000000 0.000000 0.000000 22.081592 10.039188 -17.811597 6.527168 5.301213 -9.633718 13.055927 6.293582 -7.904348 0.000000 0.000000 0.000000 0.000000 0.000000 0.000000 13.347394 6.075218 -7.565066 -10.841201 -5.905770 6.480926 -28.415515 -27.813314 20.654014 0.000000 0.000000 0.000000 13.347394 6.075218 -7.565066 -0.092100 2.702620 5.828694 0.000000 0.000000 0.000000 6.000708 -56.642076 -4.742947 0.000005 -14.045330 0.000004 0.000000 0.000000 0.000000 13.347394 6.075218 -7.565066 3.997539 12.510338 -8.958949 0.000000 0.000000 0.000000 -10.425313 48.134146 5.005164 0.000012 27.233605 -0.000013 0.000000 0.000000 0.000000 
-3.280474 31.344685 20.796211 0.000000 0.000000 0.000000 19.779881 10.292669 -17.763352 -74.852275 -1.660881 15.608149 51.317950 2.513476 -5.035068 2.016427 -0.136575 7.870448 -0.213952 -0.000002 0.000000 0.000000 0.000000 0.000000 19.779881 10.292669 -17.763352 -10.170913 -23.961709 -16.251964 54.601314 7.668874 -5.523217 17.098127 0.096907 -2.014881 0.000001 -0.000010 -0.000002 0.000000 0.000000 0.000000 19.779881 10.292669 -17.763352 6.746457 3.263804 -10.066119 13.598750 3.889505 -7.802520 0.000000 0.000000 0.000000 0.000000 0.000000 0.000000 13.933244 3.691157 -7.263316 -11.042107 -5.260849 6.154304 -26.836802 -24.526731 21.862927 0.000000 0.000000 0.000000 13.933244 3.691157 -7.263316 -0.010097 2.467390 6.291391 0.000000 0.000000 0.000000 -4.516965 -57.349998 -6.544383 -0.000005 -12.909941 0.000004 0.000000 0.000000 0.000000 13.933244 3.691157 -7.263316 4.014319 12.203262 -10.530784 0.000000 0.000000 0.000000 -11.929101 47.475579 1.373793 0.000012 25.955357 -0.000006 0.000000 0.000000 0.000000 
-3.269360 31.410786 21.404737 0.000000 0.000000 0.000000 17.715364 9.868428 -17.900920 -72.783705 -2.106660 17.576242 55.465166 1.899256 -4.838082 -2.295639 0.062135 6.763868 -0.197125 0.000011 -0.000001 0.000000 0.000000 0.000000 17.715364 9.868428 -17.900920 -13.716088 -25.735992 -17.489495 47.979238 10.792928 -6.423144 16.564051 1.043917 3.078502 0.000006 0.000009 0.000011 0.000000 0.000000 0.000000 17.715364 9.868428 -17.900920 6.885442 1.401243 -10.370199 13.977946 1.342836 -7.511214 0.000000 0.000000 0.000000 0.000000 0.000000 0.000000 14.346537 1.180235 -6.787086 -11.280670 -4.500150 5.694498 -25.107816 -20.711265 22.910538 0.000000 0.000000 0.000000 14.346537 1.180235 -6.787086 0.040088 2.391980 6.536591 0.000000 0.000000 0.000000 -14.161399 -57.684513 -8.797921 0.000007 -12.434986 0.000021 0.000000 0.000000 0.000000 14.346537 1.180235 -6.787086 4.090241 12.091624 -12.180233 0.000000 0.000000 0.000000 -14.671929 47.314964 -0.949951 0.000014 25.550209 -0.000004 0.000000 0.000000 0.000000 
-3.313621 31.467068 21.991026 0.000000 0.000000 0.000000 16.067767 8.875269 -18.064974 -71.064437 -2.143843 20.070038 59.124105 0.997112 -4.404408 -6.340472 0.301990 5.525309 -0.116882 0.000004 -0.000001 0.000000 0.000000 0.000000 16.067767 8.875269 -18.064974 -16.881933 -27.135189 -19.131006 40.452980 11.566352 -6.722831 15.866606 4.715505 11.757752 -8.040558 -1.362134 9.506428 0.000000 0.000000 0.000000 16.067767 8.875269 -18.064974 6.898714 -0.216630 -10.375151 14.108356 -1.059713 -7.041009 0.000000 0.000000 0.000000 0.000000 0.000000 0.000000 14.503099 -1.181695 -6.182899 -11.593080 -3.686049 5.108041 -23.563097 -16.758106 23.649829 0.000000 0.000000 0.000000 14.503099 -1.181695 -6.182899 0.035664 2.471874 6.864500 0.000000 0.000000 0.000000 -22.723235 -58.249725 -11.598617 -0.000003 -12.128689 -0.000001 0.000000 0.000000 0.000000 14.503099 -1.181695 -6.182899 4.176829 12.023207 -13.752179 0.000000 0.000000 0.000000 -21.900134 47.563016 1.421999 -0.000003 26.176558 -0.000001 0.000000 0.000000 0.000000 
-3.184161 31.670364 22.705351 0.000000 0.000000 0.000000 14.741488 7.495211 -18.373520 -68.662744 -1.584060 22.774156 61.820602 -0.054915 -3.962902 -10.630400 0.634460 4.508908 -0.117518 -0.000008 0.000001 0.000000 0.000000 0.000000 14.741488 7.495211 -18.373520 -20.687439 -27.677465 -19.850705 32.652781 11.670346 -6.012930 15.962767 7.855021 17.345002 -10.253839 -2.337396 12.709895 0.000000 0.000000 0.000000 14.741488 7.495211 -18.373520 6.789561 -1.525315 -9.968892 13.982725 -3.099351 -6.447823 0.000000 0.000000 0.000000 0.000000 0.000000 0.000000 14.394829 -3.185540 -5.524726 -11.995679 -2.888705 4.438315 -22.464414 -13.082079 24.109560 0.000000 0.000000 0.000000 14.394829 -3.185540 -5.524726 -0.033478 2.663427 7.674860 0.000000 0.000000 0.000000 -30.726234 -59.063064 -15.555387 0.000018 -12.051162 0.000019 0.000000 0.000000 0.000000 14.394829 -3.185540 -5.524726 4.223850 11.892738 -15.062130 0.000000 0.000000 0.000000 -35.962455 47.082154 11.257266 0.000003 27.425366 -0.000001 0.000000 0.000000 0.000000 
